<svg xmlns="http://www.w3.org/2000/svg" width="50" height="46" viewBox="0 0 50 46">
  <g id="Password_Icon" data-name="Password Icon" transform="translate(-48 -297)">
    <g id="Password_icon_background" data-name="Password icon background" transform="translate(48 297)" fill="none" stroke="#000" stroke-width="1" opacity="0.25">
      <rect width="50" height="46" rx="10" stroke="none"/>
      <rect x="0.5" y="0.5" width="49" height="45" rx="9.5" fill="none"/>
    </g>
    <path id="Password_Icon-2" data-name="Password Icon" d="M20.923,8.961H19.857V6.83A5.33,5.33,0,0,0,9.2,6.83V8.961H8.132A2.138,2.138,0,0,0,6,11.093V21.752a2.138,2.138,0,0,0,2.132,2.132H20.923a2.138,2.138,0,0,0,2.132-2.132V11.093A2.138,2.138,0,0,0,20.923,8.961Zm-6.4,9.593a2.132,2.132,0,1,1,2.132-2.132A2.138,2.138,0,0,1,14.527,18.554Zm3.3-9.593H11.223V6.83a3.3,3.3,0,1,1,6.609,0Z" transform="translate(58.473 307.808)" fill="#fff"/>
  </g>
</svg>
