<?xml version="1.0" encoding="UTF-8"?>
<svg id="Layer_4" data-name="Layer 4" xmlns="http://www.w3.org/2000/svg" xmlns:xlink="http://www.w3.org/1999/xlink" viewBox="0 0 96 96.04">
  <defs>
    <style>
      .cls-1 {
        fill: #fff;
      }

      .cls-2 {
        fill: url(#linear-gradient);
      }
    </style>
    <linearGradient id="linear-gradient" x1="7.95" y1="90.03" x2="44.13" y2="53.85" gradientTransform="translate(-1 195) scale(2 -2)" gradientUnits="userSpaceOnUse">
      <stop offset="0" stop-color="#499fd8"/>
      <stop offset="1" stop-color="#3278bd"/>
    </linearGradient>
  </defs>
  <path class="cls-2" d="M48,.79C21.9.79.74,21.94.74,48.04s21.16,47.26,47.26,47.26,47.26-21.16,47.26-47.26S74.1.79,48,.79Z"/>
  <path class="cls-1" d="M54.4,60.57h12.23l1.92-12.42h-14.15v-6.79c0-5.16,1.69-9.74,6.51-9.74h7.76v-10.84c-1.36-.18-4.25-.59-9.69-.59-11.37,0-18.04,6.01-18.04,19.69v8.26h-11.69v12.42h11.69v34.15c2.32.34,4.66.58,7.07.58,2.18,0,4.3-.2,6.4-.48v-34.25Z"/>
</svg>