<?xml version="1.0" encoding="UTF-8"?>
<svg id="Layer_1" data-name="Layer 1" xmlns="http://www.w3.org/2000/svg" viewBox="0 0 96 96.04">
  <defs>
    <style>
      .cls-1 {
        fill: #fff;
      }

      .cls-2 {
        fill: #36a852;
      }

      .cls-3 {
        fill: #f9bc15;
      }

      .cls-4 {
        fill: #557ebf;
      }

      .cls-5 {
        fill: #eb4535;
      }
    </style>
  </defs>
  <circle class="cls-1" cx="48" cy="48.04" r="48"/>
  <path class="cls-4" d="M88.84,48.93c0-3.43-.28-5.93-.88-8.52h-39.13v15.47h22.97c-.46,3.84-2.96,9.63-8.52,13.52l-.08.52,12.37,9.58.86.09c7.87-7.27,12.41-17.97,12.41-30.65"/>
  <path class="cls-2" d="M48.83,89.68c11.25,0,20.7-3.7,27.6-10.09l-13.15-10.19c-3.52,2.45-8.24,4.17-14.45,4.17-11.02,0-20.37-7.27-23.71-17.32l-.49.04-12.86,9.96-.17.47c6.85,13.61,20.93,22.97,37.23,22.97"/>
  <path class="cls-3" d="M25.12,56.24c-.88-2.59-1.39-5.37-1.39-8.24s.51-5.65,1.34-8.24l-.02-.55-13.03-10.12-.43.2c-2.82,5.65-4.45,11.99-4.45,18.71s1.62,13.06,4.45,18.71l13.52-10.46"/>
  <path class="cls-5" d="M48.83,22.44c7.83,0,13.1,3.38,16.11,6.21l11.76-11.48c-7.22-6.71-16.62-10.84-27.88-10.84-16.3,0-30.38,9.35-37.23,22.97l13.47,10.47c3.38-10.05,12.73-17.32,23.76-17.32"/>
</svg>